<?xml version="1.0" encoding="utf-8"?>
<!-- Generator: Adobe Illustrator 19.2.1, SVG Export Plug-In . SVG Version: 6.00 Build 0)  -->
<svg version="1.1" id="Layer_1" xmlns="http://www.w3.org/2000/svg" xmlns:xlink="http://www.w3.org/1999/xlink" x="0px" y="0px"
	 viewBox="0 0 160 130" style="enable-background:new 0 0 160 130;" xml:space="preserve">
<style type="text/css">
	.st0{fill:none;stroke:#2E2E2E;stroke-width:2;stroke-linecap:round;stroke-linejoin:round;stroke-miterlimit:10;}
</style>
<g id="Layer_1_1_">
	<g id="XMLID_90_">
		<g id="XMLID_140_">
			<path id="XMLID_163_" class="st0" d="M137,63l-2,2l-7.6-4.5c-1.8,1.1-3.7,1.9-5.8,2.4l-2.1,8.6h-5.3l-2.1-8.6
				c-2-0.5-4.1-1.4-5.8-2.4L98.6,65l-3.7-3.7l4.5-7.6C98.3,51.9,97.5,50,97,48l-8.6-2.1v-5.3l6.2-1.6c-1.8-2.9-3.9-5.8-6.4-8.1
				c-10-9.7-25.3-14.9-41.9-8c-13,5.2-22.1,20-22.1,32.9c0,1.5,0.1,3,0.2,4.5c-9.5,2.4-20.2,9.4-20.2,25c0,0.7,0,1.2,0,1.8
				c0.9,13.7,13.1,24,27.2,24c0,0,70.4,0,92.2,0c10.4,0,27.4-4.4,27.4-25.7C151.1,72.9,144.2,66.4,137,63z"/>
			<path id="XMLID_159_" class="st0" d="M145.1,45.7v-5.3l-8.6-2.1c-0.5-2-1.4-4.1-2.4-5.9l4.5-7.6l-1.2-1.2l-1.2-1.2l-1.2-1.2
				l-7.6,4.5c-1.8-1.1-3.7-1.9-5.9-2.4l-2.1-8.6H114l-2.1,8.6c-2.1,0.6-4.1,1.4-5.9,2.4l-7.6-4.5l-1.2,1.2L96,23.6l-1.2,1.2l4.5,7.6
				c-1.1,1.8-1.9,3.7-2.4,5.9l-2.4,0.6l-6.2,1.6v5.3l8.6,2.1c0.6,2,1.4,4.1,2.4,5.8l-4.5,7.6l3.7,3.7l7.7-4.5
				c1.8,1.1,3.7,1.9,5.8,2.4l2.1,8.6h5.3l2.1-8.6c2-0.5,4.1-1.4,5.8-2.4l7.6,4.5l2-2l0.5-0.5l1.2-1.2l-4.5-7.6
				c1.1-1.8,1.9-3.7,2.4-5.8L145.1,45.7z M124.9,50.1c-2,2.3-5,3.7-8.2,3.7c-6,0-10.8-4.9-10.8-10.8c0-0.5,0-1,0.1-1.5
				c0.7-5.3,5.2-9.4,10.7-9.4c6,0,10.8,4.9,10.8,10.8C127.6,45.7,126.6,48.2,124.9,50.1z"/>
			<path id="XMLID_158_" class="st0" d="M127.6,43c0,2.7-1,5.2-2.6,7.1c-2,2.3-5,3.7-8.2,3.7c-6,0-10.8-4.9-10.8-10.8
				c0-0.5,0-1,0.1-1.5c0.7-5.3,5.2-9.4,10.7-9.4C122.7,32.2,127.6,37,127.6,43z"/>
		</g>
		<g id="XMLID_440_">
			<circle id="XMLID_451_" class="st0" cx="73" cy="85.4" r="2.7"/>
			<circle id="XMLID_450_" class="st0" cx="94.5" cy="93.5" r="2.7"/>
			<circle id="XMLID_449_" class="st0" cx="94.5" cy="77.5" r="2.7"/>
			<circle id="XMLID_448_" class="st0" cx="83.9" cy="93.5" r="2.7"/>
			<circle id="XMLID_447_" class="st0" cx="83.9" cy="77.5" r="2.7"/>
			<line id="XMLID_446_" class="st0" x1="75.1" y1="87" x2="81.8" y2="91.9"/>
			<line id="XMLID_445_" class="st0" x1="91.8" y1="93.5" x2="86.5" y2="93.5"/>
			<line id="XMLID_444_" class="st0" x1="81.8" y1="79" x2="75.1" y2="83.9"/>
			<line id="XMLID_443_" class="st0" x1="86.5" y1="77.4" x2="91.8" y2="77.4"/>
			<line id="XMLID_442_" class="st0" x1="83.9" y1="90.8" x2="83.9" y2="80.1"/>
			<line id="XMLID_441_" class="st0" x1="85.5" y1="79.6" x2="93.1" y2="91.2"/>
		</g>
		<g>
			<circle id="XMLID_1_" class="st0" cx="50.2" cy="63.1" r="8.2"/>
			<path class="st0" d="M44.3,96.2H56c2.7,0,4.9-2.1,4.9-4.9v-15c0-2.7-2.1-4.9-4.9-4.9H44.3c-2.7,0-4.9,2.1-4.9,4.9v14.9
				C39.5,93.9,41.6,96.2,44.3,96.2z"/>
		</g>
	</g>
</g>
<g id="Layer_2">
</g>
</svg>
